<svg xmlns="http://www.w3.org/2000/svg" xml:space="preserve" width="192" height="192" data-version="2">
    <path fill="#eaeaea" d="M72.36 129.99q-12.05 0-21.44-4.11-9.38-4.11-15.89-11.3t-9.86-16.44q-3.36-9.25-3.36-19.66 0-11.37 3.77-20.82 3.77-9.46 10.62-16.38 6.85-6.91 16.3-10.75 9.45-3.84 20.82-3.84 7.4 0 13.15 1.51 5.76 1.51 9.46 3.36 3.7 1.85 4.66 2.94l-6.72 13.7q-3.7-3.29-9.11-5.34-5.41-2.06-12.67-2.06-9.45 0-17.06 4.66-7.6 4.66-12.05 13.15-4.46 8.5-4.46 20.14 0 10.28 3.84 18.7 3.84 8.43 11.3 13.5 7.47 5.07 18.16 5.07 5.89 0 11.57-1.58 5.69-1.57 11.72-5.27l4.52 13.01q-1.78 1.65-6.03 3.5t-9.8 3.08q-5.55 1.23-11.44 1.23" paint-order="stroke"/>
    <rect width="78.78" height="103.3" x="-39.39" y="-51.65" fill="none" rx="0" ry="0" transform="translate(61.7 78.84)"/>
    <path fill="#eaeaea" d="M147.44 129.99q-12.06 0-21.44-4.11-9.39-4.11-15.89-11.3-6.51-7.19-9.87-16.44-3.35-9.25-3.35-19.66 0-11.37 3.76-20.82 3.77-9.46 10.62-16.38 6.85-6.91 16.3-10.75 9.46-3.84 20.83-3.84 7.4 0 13.15 1.51t9.45 3.36q3.7 1.85 4.66 2.94l-6.71 13.7q-3.7-3.29-9.11-5.34-5.41-2.06-12.67-2.06-9.46 0-17.06 4.66-7.6 4.66-12.06 13.15-4.45 8.5-4.45 20.14 0 10.28 3.84 18.7 3.83 8.43 11.3 13.5 7.47 5.07 18.15 5.07 5.89 0 11.58-1.58 5.68-1.57 11.71-5.27l4.52 13.01q-1.78 1.65-6.03 3.5-4.24 1.85-9.79 3.08-5.55 1.23-11.44 1.23" paint-order="stroke"/>
    <rect width="78.77" height="103.3" x="-39.385" y="-51.65" fill="none" rx="0" ry="0" transform="translate(136.775 78.84)"/>
</svg>
